<svg width="40" height="40" viewBox="0 0 40 40" fill="none" xmlns="http://www.w3.org/2000/svg">
<path d="M13.75 17.4987C13.75 17.1672 13.8817 16.8493 14.1161 16.6149C14.3505 16.3804 14.6685 16.2487 15 16.2487H25C25.3315 16.2487 25.6495 16.3804 25.8839 16.6149C26.1183 16.8493 26.25 17.1672 26.25 17.4987C26.25 17.8303 26.1183 18.1482 25.8839 18.3826C25.6495 18.6171 25.3315 18.7487 25 18.7487H15C14.6685 18.7487 14.3505 18.6171 14.1161 18.3826C13.8817 18.1482 13.75 17.8303 13.75 17.4987ZM13.75 22.4975C13.75 22.166 13.8817 21.848 14.1161 21.6136C14.3505 21.3792 14.6685 21.2475 15 21.2475H22.5C22.8315 21.2475 23.1495 21.3792 23.3839 21.6136C23.6183 21.848 23.75 22.166 23.75 22.4975C23.75 22.829 23.6183 23.147 23.3839 23.3814C23.1495 23.6158 22.8315 23.7475 22.5 23.7475H15C14.6685 23.7475 14.3505 23.6158 14.1161 23.3814C13.8817 23.147 13.75 22.829 13.75 22.4975ZM20 3.75C11.025 3.75 3.74999 11.025 3.74999 19.9975C3.74999 22.5913 4.35874 25.045 5.44124 27.2225L3.32124 33.5812C2.68249 35.4962 4.46124 37.34 6.39749 36.7688L13.215 34.765C15.343 35.7435 17.6578 36.2489 20 36.2462C28.975 36.2462 36.25 28.9713 36.25 19.9975C36.25 11.025 28.975 3.75 20 3.75ZM6.24999 19.9975C6.24999 12.405 12.4062 6.25 20 6.25C27.595 6.25 33.75 12.405 33.75 19.9975C33.75 27.5912 27.595 33.7462 20 33.7462C17.7987 33.7462 15.7212 33.23 13.8787 32.3125L13.44 32.0937L5.69249 34.3712L8.15124 26.9975L7.89374 26.5225C6.81112 24.5183 6.24611 22.2754 6.24999 19.9975V19.9975Z" fill="white"/>
</svg>
