<svg width="25" height="25" viewBox="0 0 25 25" fill="none" xmlns="http://www.w3.org/2000/svg">
<path d="M8.33334 8.03125L18.75 12.5L8.33334 16.9688V13.4896L15.7708 12.5L8.33334 11.5104V8.03125ZM12.5 2.08334C13.8679 2.08334 15.2225 2.35277 16.4863 2.87626C17.7501 3.39974 18.8984 4.16703 19.8657 5.13431C20.833 6.10158 21.6003 7.24991 22.1238 8.51372C22.6472 9.77752 22.9167 11.1321 22.9167 12.5C22.9167 15.2627 21.8192 17.9122 19.8657 19.8657C17.9122 21.8192 15.2627 22.9167 12.5 22.9167C11.1321 22.9167 9.77753 22.6472 8.51372 22.1237C7.24992 21.6003 6.10159 20.833 5.13431 19.8657C3.18081 17.9122 2.08334 15.2627 2.08334 12.5C2.08334 9.73733 3.18081 7.08781 5.13431 5.13431C7.08782 3.1808 9.73734 2.08334 12.5 2.08334V2.08334ZM12.5 4.16667C10.2899 4.16667 8.17026 5.04464 6.60745 6.60745C5.04465 8.17025 4.16668 10.2899 4.16668 12.5C4.16668 14.7101 5.04465 16.8298 6.60745 18.3926C8.17026 19.9554 10.2899 20.8333 12.5 20.8333C14.7101 20.8333 16.8298 19.9554 18.3926 18.3926C19.9554 16.8298 20.8333 14.7101 20.8333 12.5C20.8333 10.2899 19.9554 8.17025 18.3926 6.60745C16.8298 5.04464 14.7101 4.16667 12.5 4.16667V4.16667Z" fill="black"/>
</svg>
