<svg width="25" height="25" viewBox="0 0 25 25" fill="none" xmlns="http://www.w3.org/2000/svg">
<path d="M16.6667 17.7083V14.5833H9.375V10.4167H16.6667V7.29167L21.875 12.5L16.6667 17.7083ZM14.5833 2.08334C15.1359 2.08334 15.6658 2.30283 16.0565 2.69353C16.4472 3.08423 16.6667 3.61413 16.6667 4.16667V6.25H14.5833V4.16667H5.20833V20.8333H14.5833V18.75H16.6667V20.8333C16.6667 21.3859 16.4472 21.9158 16.0565 22.3065C15.6658 22.6972 15.1359 22.9167 14.5833 22.9167H5.20833C4.6558 22.9167 4.12589 22.6972 3.73519 22.3065C3.34449 21.9158 3.125 21.3859 3.125 20.8333V4.16667C3.125 3.61413 3.34449 3.08423 3.73519 2.69353C4.12589 2.30283 4.6558 2.08334 5.20833 2.08334H14.5833Z" fill="white"/>
</svg>
