<svg width="25" height="25" viewBox="0 0 25 25" fill="none" xmlns="http://www.w3.org/2000/svg">
<path d="M7.29166 14.5833C6.73912 14.5833 6.20922 14.3638 5.81852 13.9731C5.42782 13.5824 5.20832 13.0525 5.20832 12.5C5.20832 11.9475 5.42782 11.4176 5.81852 11.0269C6.20922 10.6362 6.73912 10.4167 7.29166 10.4167C7.84419 10.4167 8.37409 10.6362 8.76479 11.0269C9.1555 11.4176 9.37499 11.9475 9.37499 12.5C9.37499 13.0525 9.1555 13.5824 8.76479 13.9731C8.37409 14.3638 7.84419 14.5833 7.29166 14.5833ZM13.1771 10.4167C12.748 9.19842 11.9514 8.14336 10.8972 7.39705C9.84306 6.65073 8.58326 6.24995 7.29166 6.25C5.63405 6.25 4.04434 6.90848 2.87224 8.08058C1.70014 9.25269 1.04166 10.8424 1.04166 12.5C1.04166 14.1576 1.70014 15.7473 2.87224 16.9194C4.04434 18.0915 5.63405 18.75 7.29166 18.75C8.58326 18.75 9.84306 18.3493 10.8972 17.603C11.9514 16.8566 12.748 15.8016 13.1771 14.5833H17.7083V18.75H21.875V14.5833H23.9583V10.4167H13.1771Z" fill="white"/>
</svg>
